<?xml version="1.0" standalone="no"?>
<!DOCTYPE svg PUBLIC "-//W3C//DTD SVG 20010904//EN"
 "http://www.w3.org/TR/2001/REC-SVG-20010904/DTD/svg10.dtd">
<svg version="1.0" xmlns="http://www.w3.org/2000/svg"
 width="768.000000pt" height="768.000000pt" viewBox="0 0 768.000000 768.000000"
 preserveAspectRatio="xMidYMid meet">
<metadata>
Created by potrace 1.14, written by Peter Selinger 2001-2017
</metadata>
<g transform="translate(0.000000,768.000000) scale(0.100000,-0.100000)"
fill="#000000" stroke="none">
<path d="M3508 7324 c-69 -16 -123 -43 -161 -78 -19 -17 -39 -26 -62 -26 -46
0 -134 -34 -192 -74 -44 -30 -125 -118 -134 -145 -3 -8 -29 -6 -91 4 -245 43
-515 11 -758 -89 -130 -53 -182 -69 -335 -101 -140 -29 -153 -38 -132 -86 19
-46 42 -65 177 -148 133 -81 193 -122 188 -127 -2 -1 -30 3 -63 11 -373 88
-391 90 -695 116 -133 11 -283 36 -370 63 -74 23 -226 50 -244 43 -10 -4 -16
-18 -16 -41 0 -34 33 -186 50 -231 5 -13 11 -90 14 -172 10 -287 69 -611 172
-948 72 -235 191 -456 350 -652 28 -34 27 -63 -3 -63 -57 0 -137 -103 -154
-198 -11 -61 -11 -61 -47 -64 -32 -3 -40 -9 -62 -48 -22 -40 -25 -56 -24 -143
0 -92 0 -96 -13 -65 -7 18 -19 67 -26 107 -6 41 -18 76 -24 79 -7 2 -27 -10
-44 -28 l-31 -31 4 -93 c3 -82 8 -102 38 -162 30 -60 114 -157 171 -200 9 -7
14 -30 14 -69 0 -64 0 -64 -78 -94 l-29 -11 4 -103 3 -102 -37 -33 c-36 -33
-38 -37 -38 -97 0 -116 68 -262 158 -341 102 -89 164 -124 219 -124 49 0 93
20 93 43 0 7 -21 24 -48 39 -70 40 -146 106 -193 168 -39 52 -74 118 -67 126
2 2 28 -28 58 -66 29 -37 74 -84 100 -104 112 -86 251 -128 305 -92 l25 16 2
-82 c2 -109 2 -106 -17 -158 -10 -25 -19 -76 -21 -114 -2 -38 -8 -85 -14 -105
-6 -20 -13 -84 -17 -143 -6 -103 -5 -109 22 -162 15 -30 49 -81 76 -112 27
-33 54 -78 64 -108 43 -135 131 -223 232 -233 43 -5 71 -15 105 -39 27 -18 64
-38 83 -44 19 -6 35 -15 35 -20 0 -4 21 -31 46 -59 91 -101 234 -144 344 -102
56 21 130 82 130 107 0 18 -5 18 -36 -2 -37 -25 -173 -24 -210 1 l-29 19 55 8
c118 15 229 75 295 159 30 40 37 57 46 130 6 46 8 106 4 133 -7 57 -46 144
-75 171 -32 29 -23 36 19 14 58 -30 202 -38 268 -14 l49 17 38 -26 c55 -37
104 -47 209 -45 69 2 104 -2 140 -16 l47 -18 0 -111 c0 -61 -3 -148 -6 -192
-6 -71 -9 -81 -24 -77 -21 6 -40 -41 -40 -97 0 -33 -6 -40 -67 -87 -38 -28
-93 -67 -124 -87 l-57 -37 -33 20 c-63 39 -124 24 -257 -62 -47 -31 -90 -49
-142 -61 -175 -39 -628 -195 -758 -260 -78 -39 -97 -54 -158 -128 -136 -161
-201 -281 -305 -563 -28 -77 -58 -153 -66 -169 -30 -57 -53 -136 -40 -136 10
0 67 138 199 480 40 104 190 352 204 337 3 -2 -4 -27 -15 -55 -39 -99 -53
-212 -49 -396 4 -134 10 -192 28 -269 13 -55 28 -97 35 -97 9 0 5 29 -13 98
-23 87 -25 117 -26 292 -1 213 13 300 69 425 40 92 66 118 162 168 122 62 762
272 778 255 3 -3 -3 -20 -12 -39 -25 -49 -29 -193 -9 -298 8 -46 18 -86 21
-89 14 -15 14 14 -1 104 -32 196 -4 308 93 370 94 60 150 84 197 84 58 0 69
-18 16 -26 -48 -8 -70 -32 -101 -112 -32 -81 -30 -187 5 -316 30 -113 50 -151
115 -219 86 -91 200 -162 314 -197 78 -23 283 -44 357 -35 204 24 437 126 569
250 25 24 61 55 79 70 18 15 106 111 196 214 247 283 353 381 410 381 25 0
203 -28 228 -36 13 -4 -1 -18 -56 -54 -90 -61 -261 -247 -398 -435 -88 -120
-263 -288 -430 -414 -121 -90 -155 -121 -132 -121 4 0 68 46 143 102 167 125
340 292 434 418 38 52 86 113 106 136 20 22 60 69 90 105 138 163 241 237 342
246 114 11 398 -44 577 -111 143 -54 266 -140 331 -231 27 -37 30 -46 15 -41
-30 9 -135 10 -182 2 -46 -8 -166 -82 -222 -137 -40 -39 -195 -208 -232 -254
-84 -101 -240 -396 -278 -527 -6 -21 -5 -28 5 -28 7 0 18 19 24 43 15 61 142
315 204 410 80 123 275 333 375 405 78 55 121 71 192 71 86 1 131 -14 163 -51
36 -43 103 -144 156 -236 79 -137 226 -499 247 -606 l6 -36 531 0 531 0 -56
58 c-31 31 -68 80 -82 108 l-25 52 29 6 c33 6 70 56 70 93 0 37 11 53 36 53
32 0 31 16 -1 24 -73 18 -226 233 -254 355 -11 52 14 108 126 276 94 141 103
158 102 182 0 17 -1 17 -12 -1 -7 -10 -51 -79 -100 -153 -48 -74 -101 -162
-118 -195 -39 -77 -36 -111 18 -220 22 -43 35 -78 31 -78 -55 0 -162 107 -250
251 -86 138 -87 137 67 326 115 141 167 198 222 241 41 32 55 37 99 37 37 0
58 -5 73 -19 l21 -19 0 1817 0 1816 -27 -17 c-16 -10 -37 -27 -48 -39 -11 -12
-29 -24 -40 -27 -11 -4 -32 -18 -47 -32 -15 -14 -30 -25 -34 -25 -5 0 -24 -17
-43 -38 -20 -20 -67 -62 -106 -92 -38 -30 -71 -58 -73 -62 -2 -5 -10 -8 -17
-8 -8 0 -18 -8 -24 -17 -9 -17 -12 -17 -45 1 -20 11 -36 22 -36 26 0 4 -8 10
-17 13 -10 2 -26 8 -36 12 -18 7 -18 3 -12 -81 7 -83 6 -90 -14 -108 l-21 -19
0 66 c0 36 -5 90 -11 119 -14 70 -81 209 -119 246 -41 42 -126 82 -172 82 -33
0 -41 5 -58 33 -21 35 -75 67 -114 67 -14 0 -30 10 -40 24 -9 14 -36 50 -61
81 -36 43 -43 59 -36 73 21 39 94 313 116 436 37 213 49 399 42 696 -6 267 -2
325 33 488 10 45 9 56 -4 77 -24 36 -62 32 -163 -15 -233 -110 -441 -184 -672
-240 -69 -17 -173 -42 -231 -56 -58 -15 -139 -33 -180 -42 -41 -8 -115 -25
-165 -38 -85 -21 -115 -20 -115 6 0 4 64 64 143 132 191 168 301 312 268 352
-8 9 -59 15 -183 19 -239 8 -521 42 -624 75 -117 38 -356 54 -478 31 -50 -9
-62 -8 -99 10 -23 11 -67 22 -97 24 -36 3 -76 15 -115 36 -115 60 -267 77
-397 45z m2952 -1051 c0 -9 -10 -37 -21 -61 -20 -41 -21 -55 -16 -175 9 -215
-37 -470 -115 -631 -21 -44 -38 -89 -38 -100 0 -12 -9 -36 -20 -54 -22 -36
-24 -55 -14 -117 3 -22 7 -53 7 -70 2 -29 0 -30 -35 -28 -36 2 -38 1 -38 -26
0 -33 -35 -82 -54 -75 -8 3 -18 -8 -27 -27 -7 -18 -25 -47 -39 -63 -15 -17
-45 -57 -68 -90 l-42 -59 -10 27 c-5 15 -22 69 -36 119 -15 50 -41 121 -59
157 -18 36 -49 105 -69 153 l-35 89 62 57 c34 31 83 77 110 101 117 106 277
356 443 689 54 110 102 200 107 200 4 1 7 -7 7 -16z m-1697 -41 c44 -46 33
-82 -25 -82 -11 0 -28 -10 -37 -22 -10 -12 -23 -18 -29 -14 -17 10 -15 31 3
46 11 9 14 23 9 46 -3 18 -3 37 1 43 12 20 51 11 78 -17z m-194 -208 c36 -46
24 -82 -24 -70 -28 7 -58 57 -49 80 10 25 50 19 73 -10z m-3706 -39 c29 -59
165 -258 224 -326 25 -30 85 -97 133 -149 48 -52 98 -107 111 -122 45 -49 160
-147 219 -186 l59 -38 -40 -84 c-52 -106 -136 -310 -156 -375 -8 -27 -17 -52
-18 -54 -10 -10 -80 59 -111 111 -20 33 -53 70 -75 85 -21 14 -41 35 -45 47
-4 11 -22 38 -41 59 -22 24 -32 44 -28 56 3 9 -2 26 -10 37 -8 10 -15 25 -15
32 0 6 -22 52 -50 100 -50 88 -58 108 -40 97 6 -4 7 2 1 17 -51 127 -61 154
-61 167 0 9 -7 29 -15 44 -8 15 -17 69 -20 120 -4 51 -13 121 -20 157 -7 36
-16 97 -20 135 -3 39 -8 80 -12 93 -9 36 6 25 30 -23z m3399 -172 c23 -21 23
-59 1 -68 -26 -9 -79 51 -62 71 15 19 38 18 61 -3z m-2094 -50 c2 -23 8 -33
21 -33 41 0 54 -45 21 -75 -22 -20 -70 -14 -70 10 0 19 -11 19 -36 0 -10 -8
-29 -15 -42 -15 -46 0 -41 58 10 115 25 29 37 35 62 33 27 -3 31 -7 34 -35z
m1775 -69 c28 -37 19 -68 -20 -72 -17 -2 -37 -10 -43 -18 -18 -21 -39 -17 -49
9 -8 18 -2 29 32 65 23 23 46 42 52 42 5 0 18 -12 28 -26z m-1306 -25 c27 -27
-38 -129 -82 -129 -47 0 -45 47 6 105 31 35 56 44 76 24z m1007 -5 c18 -7 50
-98 42 -119 -3 -8 -16 -15 -30 -15 -38 0 -73 99 -44 128 14 14 12 14 32 6z
m-472 -59 c12 -46 -8 -87 -41 -83 -22 3 -26 9 -29 40 -4 48 13 80 41 76 13 -2
24 -13 29 -33z m92 -1 c18 -18 20 -33 6 -68 -17 -46 -70 -27 -70 25 0 27 22
59 40 59 5 0 16 -7 24 -16z m-589 -598 c0 -162 0 -165 -23 -175 -31 -15 -132
-90 -159 -120 -27 -29 -28 -26 -7 47 28 98 97 255 152 349 20 35 37 63 37 63
0 0 0 -74 0 -164z m238 -18 c5 -66 3 -78 -10 -78 -13 0 -15 9 -9 53 3 28 6 65
6 81 0 53 7 22 13 -56z m924 -326 c71 -106 218 -278 312 -364 l73 -68 -23 -20
c-13 -10 -27 -19 -30 -20 -7 0 -49 -75 -49 -89 0 -19 18 -12 25 10 4 12 27 41
52 65 44 44 44 44 69 27 33 -24 25 -53 -33 -117 -59 -66 -113 -146 -113 -168
0 -22 16 -24 24 -3 12 32 23 13 15 -27 -4 -24 -4 -46 0 -51 4 -4 26 19 50 51
103 143 242 209 421 200 72 -4 92 -9 130 -32 60 -37 132 -107 186 -180 40 -53
44 -64 44 -115 0 -75 -17 -178 -37 -219 -17 -35 -8 -59 11 -29 6 10 30 45 54
77 23 32 56 84 72 116 16 33 30 52 31 44 15 -230 -111 -584 -268 -751 -25 -27
-43 -52 -40 -56 4 -3 13 -1 20 6 8 6 35 17 60 25 64 19 124 56 220 134 l81 66
-48 -90 c-88 -163 -263 -380 -339 -420 -15 -8 -25 -19 -22 -24 6 -9 122 28
178 57 131 67 -135 -239 -343 -394 -52 -39 -151 -106 -220 -148 -69 -43 -141
-88 -160 -101 -76 -50 -216 -114 -284 -130 l-71 -16 -120 32 c-66 18 -156 45
-200 62 -44 16 -134 49 -200 72 -143 52 -248 100 -370 169 -179 101 -354 255
-399 351 -38 81 -36 89 20 65 25 -11 61 -31 81 -45 37 -25 63 -31 63 -15 0 5
-9 13 -21 16 -11 4 -59 41 -105 84 -84 76 -85 78 -120 176 -19 55 -45 136 -59
179 l-24 79 32 -30 c42 -40 188 -134 200 -130 6 2 -6 21 -26 44 -39 43 -137
229 -168 321 -45 132 -77 410 -79 702 -2 272 41 571 89 624 29 32 178 146 191
146 4 0 11 -35 14 -77 16 -179 81 -462 128 -558 34 -68 123 -215 131 -215 14
0 7 24 -17 59 -48 69 -74 308 -64 576 10 241 15 279 44 283 18 3 22 -4 27 -49
9 -75 42 -184 100 -333 68 -176 136 -301 203 -376 12 -14 50 -59 83 -101 75
-95 210 -223 287 -274 32 -21 85 -56 117 -77 32 -21 60 -38 63 -38 13 0 0 25
-29 54 -112 112 -225 302 -292 493 -48 137 -43 158 18 68 43 -64 241 -275 258
-275 4 0 14 -6 21 -13 49 -47 378 -227 416 -227 7 0 24 -7 37 -16 46 -30 28 5
-43 85 -105 117 -264 331 -246 331 3 0 -4 13 -14 28 -29 40 -99 202 -133 306
-31 97 -64 259 -74 371 l-7 70 42 -80 c23 -44 67 -117 97 -163z m320 -47 c44
-55 122 -142 173 -193 51 -50 91 -93 89 -95 -2 -1 -28 -12 -57 -24 l-52 -21
-41 54 c-48 65 -160 268 -189 344 -12 30 -17 51 -12 45 5 -5 45 -55 89 -110z
m-2532 -37 c-8 -72 -15 -90 -31 -80 -8 5 -6 27 9 75 11 37 22 67 24 67 3 0 2
-28 -2 -62z m5582 -65 c-2 -16 -4 -3 -4 27 0 30 2 43 4 28 2 -16 2 -40 0 -55z
m-2683 -284 c-3 -5 -16 -9 -28 -9 -13 0 -42 -7 -65 -15 l-42 -14 -29 32 c-16
18 -30 35 -30 39 0 3 26 15 58 26 l57 19 42 -35 c24 -19 40 -38 37 -43z m2573
-81 c-13 -104 -80 -199 -178 -248 -41 -21 -43 -21 -80 -4 -32 14 -41 24 -50
58 -5 23 -12 46 -14 52 -3 11 58 24 113 24 25 0 129 82 180 143 13 15 26 27
29 27 3 0 3 -23 0 -52z m-1967 -245 c0 -14 -1 -24 -3 -22 -1 2 -11 14 -21 27
-19 22 -19 22 2 22 17 0 22 -6 22 -27z m2399 -1363 c42 -21 77 -69 87 -117 14
-70 -52 -154 -133 -169 -80 -15 -183 83 -170 162 9 53 43 100 90 123 52 26 77
26 126 1z m-2844 -266 l15 -37 -90 -88 -90 -89 6 48 c12 111 12 109 69 148 30
20 58 40 61 45 9 15 13 11 29 -27z m-183 -131 c-9 -62 -9 -324 0 -383 l7 -45
-62 -41 c-122 -80 -250 -127 -401 -147 -130 -18 -244 -14 -390 13 -125 23
-199 47 -244 80 l-27 20 8 123 c4 67 7 157 5 200 -2 42 -3 77 -2 77 0 0 47
-18 104 -41 108 -41 275 -91 369 -109 47 -9 62 -7 115 13 92 33 353 171 376
198 3 3 31 20 62 38 32 18 60 36 63 42 15 24 24 5 17 -38z m1691 -192 c235
-161 259 -476 52 -669 -68 -64 -143 -101 -226 -109 -37 -4 -57 1 -110 28 -35
18 -109 47 -164 64 -98 31 -101 33 -138 86 -123 174 -93 428 66 564 47 40 63
43 72 15 12 -37 47 -51 136 -52 100 -2 186 25 234 72 16 17 31 30 33 30 2 0
22 -13 45 -29z m-1576 -456 c36 -36 92 -84 124 -106 l58 -41 -72 -71 c-40 -40
-135 -144 -211 -232 -234 -270 -342 -364 -519 -454 -164 -83 -223 -96 -432
-96 -158 1 -176 3 -260 29 -110 35 -225 106 -296 184 -69 76 -75 86 -105 183
-36 117 -40 281 -7 352 16 34 28 47 43 47 40 0 204 92 314 176 l68 53 46 -34
c47 -37 138 -70 221 -81 l49 -6 -19 -32 c-10 -17 -19 -45 -19 -62 0 -34 55
-133 99 -177 l28 -28 59 39 c94 62 124 98 124 147 0 27 -7 48 -19 62 l-19 20
106 6 c191 10 355 59 507 150 33 20 61 36 63 37 2 0 33 -29 69 -65z m-919
-201 c-5 -28 -28 -29 -28 -1 0 13 3 27 7 31 10 10 25 -10 21 -30z m3563 -616
c67 -88 136 -139 188 -140 21 -1 34 -11 54 -42 14 -23 42 -57 61 -75 40 -39
45 -69 22 -126 -15 -34 -42 -56 -63 -48 -8 3 -6 14 7 36 10 18 21 46 25 64 6
28 2 37 -30 68 -20 19 -42 35 -50 35 -21 0 -67 -41 -79 -72 l-12 -28 -91 71
c-99 77 -123 114 -123 191 0 38 33 108 52 108 3 0 21 -19 39 -42z"/>
<path d="M4475 4047 c-102 -34 -136 -67 -170 -163 -29 -82 -32 -158 -8 -235 9
-30 15 -66 14 -81 -1 -15 3 -37 10 -50 13 -26 98 -108 111 -108 5 0 7 -8 4
-18 -8 -25 29 -61 46 -44 18 18 69 15 83 -5 11 -15 14 -15 36 0 28 20 60 22
78 5 10 -11 16 -8 32 11 10 13 19 33 19 45 0 13 12 33 26 47 29 26 64 89 64
114 0 8 6 15 14 15 19 0 24 17 32 103 5 58 3 86 -11 128 -33 102 -109 195
-183 226 -49 20 -150 25 -197 10z m173 -99 c4 -35 -14 -68 -36 -68 -44 0 -57
58 -19 85 30 21 51 15 55 -17z m107 -92 c0 -36 -26 -56 -49 -37 -19 16 -21 57
-3 65 30 12 52 1 52 -28z m30 -102 c54 -36 55 -38 55 -85 0 -38 -4 -52 -20
-61 -11 -7 -20 -19 -20 -26 0 -21 -37 -84 -72 -124 -29 -33 -41 -39 -101 -48
-71 -11 -125 -6 -167 15 -27 14 -120 99 -120 110 0 10 51 75 60 75 4 0 12 -17
18 -38 12 -38 49 -88 59 -78 3 3 -4 21 -15 39 -34 58 -37 92 -10 111 30 21 45
20 75 -4 35 -27 69 -25 97 5 13 14 31 25 40 25 12 0 16 9 16 37 0 24 8 45 22
60 12 13 23 23 25 23 2 0 28 -16 58 -36z"/>
<path d="M4692 3556 c-23 -30 -28 -46 -14 -46 16 0 44 39 40 56 -3 16 -7 14
-26 -10z"/>
<path d="M2851 3688 c-53 -15 -23 -28 39 -16 114 21 267 -11 324 -69 28 -27
41 -27 30 0 -8 23 -60 53 -130 77 -63 22 -201 26 -263 8z"/>
<path d="M2794 3545 c-8 -19 -20 -35 -27 -35 -7 0 -39 -15 -70 -34 -31 -19
-65 -32 -74 -30 -10 2 -25 0 -33 -6 -12 -7 -13 -13 -3 -28 9 -16 8 -23 -5 -36
-13 -12 -14 -21 -6 -34 6 -9 7 -28 3 -42 -10 -35 -11 -110 -1 -110 5 0 26 25
47 56 54 78 115 128 200 163 81 34 163 40 266 21 57 -11 189 -68 189 -81 0 -5
7 -9 15 -9 19 0 19 -1 -3 52 -11 24 -17 48 -15 54 4 12 -125 84 -150 84 -8 0
-22 11 -31 25 -18 27 -41 33 -49 12 -8 -20 -191 -21 -207 -2 -19 23 -30 18
-46 -20z"/>
<path d="M3780 3094 c0 -8 5 -12 10 -9 6 3 10 10 10 16 0 5 -4 9 -10 9 -5 0
-10 -7 -10 -16z"/>
<path d="M4166 2871 c-3 -4 -70 -6 -148 -4 -148 5 -166 3 -346 -47 -41 -11
-95 -31 -120 -44 -26 -13 -53 -21 -59 -19 -15 5 -17 -13 -3 -22 6 -3 10 -25
10 -48 0 -53 33 -174 64 -235 33 -65 70 -100 146 -136 58 -27 75 -31 155 -31
112 0 177 27 253 105 70 72 92 138 92 279 0 136 -22 238 -44 202z m-29 -35 c8
-7 -16 -63 -33 -77 -11 -9 -20 -9 -39 1 -23 12 -110 11 -263 -5 -64 -7 -157
-40 -182 -65 -17 -17 -19 -17 -49 11 -17 15 -31 32 -31 37 0 15 95 50 204 76
56 14 110 27 121 30 26 7 264 0 272 -8z m-48 -151 c26 -11 54 -33 71 -57 25
-34 27 -42 19 -79 -14 -62 -43 -111 -92 -156 -69 -64 -100 -76 -202 -81 -105
-5 -181 18 -242 71 -38 34 -83 117 -83 154 0 55 129 144 238 163 78 14 241 6
291 -15z"/>
<path d="M7421 2486 c-60 -33 -67 -102 -16 -153 31 -31 40 -35 72 -30 87 15
119 111 55 168 -35 32 -72 37 -111 15z"/>
<path d="M5855 1826 c-95 -44 -146 -118 -153 -221 -6 -84 11 -135 62 -192 59
-66 117 -93 200 -95 155 -2 268 112 268 271 0 59 -5 75 -32 119 -39 63 -102
119 -149 132 -63 17 -142 12 -196 -14z"/>
<path d="M7645 706 c-16 -33 -30 -81 -33 -110 -4 -45 1 -62 31 -122 30 -57 36
-64 37 -41 0 15 -12 51 -26 79 -29 57 -27 88 8 170 31 73 18 94 -17 24z"/>
<path d="M2730 605 c0 -18 45 -88 85 -133 112 -125 256 -190 525 -238 84 -14
210 -11 210 6 0 4 -53 10 -117 12 -291 11 -531 120 -644 293 -38 56 -59 78
-59 60z"/>
<path d="M6046 528 c18 -58 311 -439 393 -512 45 -40 31 -4 -22 56 -170 194
-296 358 -341 446 -19 37 -41 44 -30 10z"/>
<path d="M3898 209 c-39 -48 -102 -96 -213 -162 -57 -33 -73 -47 -56 -47 60 0
321 197 321 242 0 19 -21 5 -52 -33z"/>
<path d="M4830 93 c0 -48 14 -93 27 -93 9 0 13 6 10 14 -3 8 -9 31 -13 50 -7
39 -24 59 -24 29z"/>
</g>
</svg>
